<svg width="34" height="46" viewBox="0 0 34 46" fill="none" xmlns="http://www.w3.org/2000/svg">
<path d="M11.6787 6.62369C11.8542 6.79915 12.0841 6.88684 12.314 6.88684C12.5439 6.88684 12.7739 6.79915 12.9493 6.62369C13.3002 6.27285 13.3002 5.70396 12.9493 5.35303L10.9149 3.3186C10.5641 2.96785 9.99516 2.96785 9.64423 3.3186C9.29339 3.66944 9.29339 4.23834 9.64423 4.58926L11.6787 6.62369Z" fill="#222222"/>
<path d="M20.7874 6.88672C21.0173 6.88672 21.2473 6.79903 21.4227 6.62356L23.4571 4.58914C23.808 4.2383 23.808 3.66941 23.4571 3.31848C23.1063 2.96773 22.5374 2.96773 22.1865 3.31848L20.152 5.3529C19.8012 5.70374 19.8012 6.27263 20.152 6.62356C20.3275 6.79903 20.5575 6.88672 20.7874 6.88672Z" fill="#222222"/>
<path d="M16.5508 4.67394C17.047 4.67394 17.4492 4.27171 17.4492 3.7755V0.898438C17.4492 0.402231 17.047 0 16.5508 0C16.0546 0 15.6523 0.402231 15.6523 0.898438V3.7755C15.6523 4.27171 16.0546 4.67394 16.5508 4.67394Z" fill="#222222"/>
<path d="M32.5045 24.7432C32.1322 24.371 31.6851 24.1009 31.1972 23.9471C31.5551 23.4183 31.747 22.7958 31.746 22.1448C31.746 21.283 31.4106 20.473 30.8017 19.864C30.3605 19.4228 29.8142 19.1252 29.2194 18.9945C29.344 18.6481 29.4086 18.2793 29.408 17.9009C29.408 17.0391 29.0726 16.2291 28.4637 15.62C28.1074 15.2638 27.6826 15.0011 27.219 14.8443L30.932 11.1313C31.5422 10.521 31.8776 9.71063 31.8763 8.85055C31.8763 7.97341 31.5308 7.15331 30.9032 6.54121C29.6458 5.3152 27.5931 5.34718 26.3276 6.61254L16.517 16.4231C16.4425 15.9638 16.368 15.5046 16.2933 15.0451C16.0137 13.3225 15.0928 11.7961 13.6993 10.7463C12.8504 10.1083 11.6883 10.1908 10.9363 10.9427C10.5866 11.2925 10.3718 11.761 10.3313 12.2625L9.63773 20.9284C9.50431 22.5927 8.78071 24.1594 7.60008 25.34L6.90415 26.036L6.71628 25.8481C6.36535 25.4973 5.79655 25.4973 5.44571 25.8481L0.814178 30.4795C0.645721 30.6481 0.551025 30.8766 0.551025 31.1148C0.551025 31.3531 0.645721 31.5816 0.814178 31.7501L4.94879 35.8847C5.29963 36.2355 5.86852 36.2355 6.21945 35.8847C6.57029 35.5339 6.57029 34.965 6.21945 34.6141L2.72012 31.1148L6.08118 27.7539L18.7973 40.47L15.4363 43.8309L11.9371 40.3316C11.5863 39.9808 11.0174 39.9808 10.6664 40.3316C10.3156 40.6825 10.3156 41.2514 10.6664 41.6023L14.8011 45.7369C14.9765 45.9123 15.2064 46 15.4363 46C15.6662 46 15.8962 45.9123 16.0716 45.7369L20.7032 41.1054C21.054 40.7545 21.054 40.1856 20.7032 39.8347L20.5211 39.6527C20.7939 39.4051 21.0898 39.1831 21.406 38.9934L23.2872 37.8652C24.3749 37.2132 25.3816 36.4276 26.2793 35.5299L32.5046 29.3047C33.1148 28.6944 33.4501 27.884 33.4489 27.0239C33.4488 26.1622 33.1135 25.3522 32.5045 24.7432ZM31.2339 28.0342L25.0086 34.2594C24.2151 35.0531 23.325 35.7478 22.3632 36.3243L20.4819 37.4526C20.0397 37.7178 19.6261 38.0295 19.2486 38.3802L8.1749 27.3064L8.87083 26.6105C10.353 25.1284 11.2615 23.1613 11.429 21.0718L12.1226 12.4062C12.1289 12.328 12.1574 12.263 12.2071 12.2133C12.2744 12.146 12.4473 12.0529 12.619 12.182C13.6397 12.9511 14.3147 14.0701 14.5198 15.3332C14.6884 16.3706 14.8562 17.4071 15.024 18.4435C15.078 18.7765 15.3138 19.0512 15.6348 19.1548C15.9557 19.2586 16.3077 19.1737 16.5463 18.9352L27.5981 7.8832C28.1718 7.30955 29.0917 7.28467 29.6487 7.82768C29.9264 8.09865 30.0794 8.46198 30.0794 8.8519C30.08 9.2323 29.9315 9.59068 29.6614 9.86075C27.7697 11.7523 22.8944 16.6276 21.0687 18.4534C20.7179 18.8043 20.7179 19.3731 21.0687 19.724C21.2442 19.8994 21.4741 19.9871 21.704 19.9871C21.9339 19.9871 22.1639 19.8994 22.3393 19.724L25.1726 16.8906C25.7296 16.3337 26.6361 16.3335 27.193 16.8907C27.4626 17.1603 27.6112 17.519 27.6112 17.9021C27.6117 18.2826 27.4632 18.6409 27.193 18.9111C26.59 19.514 24.9828 21.1213 24.3596 21.7444C24.0088 22.0952 24.0088 22.6641 24.3596 23.015C24.5351 23.1905 24.765 23.2782 24.9949 23.2782C25.2248 23.2782 25.4548 23.1905 25.6302 23.015L27.5106 21.1346C27.7806 20.8646 28.1393 20.7159 28.5208 20.7159C28.9023 20.7159 29.261 20.8645 29.531 21.1346C29.8006 21.4042 29.9492 21.763 29.9492 22.1461C29.9497 22.5266 29.8012 22.8849 29.531 23.1549C29.322 23.364 27.817 24.869 27.6506 25.0354C27.2998 25.3862 27.2998 25.9551 27.6506 26.306C27.8261 26.4815 28.056 26.5692 28.2859 26.5692C28.5158 26.5692 28.7458 26.4815 28.9212 26.306L29.2133 26.0139C29.4833 25.7439 29.8422 25.5951 30.2235 25.5951C30.605 25.5951 30.9638 25.7438 31.2337 26.0139C31.5034 26.2834 31.6519 26.6422 31.6519 27.0253C31.6525 27.4057 31.504 27.764 31.2339 28.0342Z" fill="#222222"/>
<path d="M8.44287 39.0066C8.93906 39.0066 9.34131 38.6043 9.34131 38.1082C9.34131 37.612 8.93906 37.2097 8.44287 37.2097C7.94668 37.2097 7.54443 37.612 7.54443 38.1082C7.54443 38.6043 7.94668 39.0066 8.44287 39.0066Z" fill="#222222"/>
</svg>
