<svg width="930" height="135" viewBox="0 0 930 135" fill="none" xmlns="http://www.w3.org/2000/svg">
<g opacity="0.3">
<mask id="path-1-outside-1_88_976" maskUnits="userSpaceOnUse" x="-5" y="-5" width="940" height="145" fill="black">
<rect fill="white" x="-5" y="-5" width="940" height="145"/>
<path d="M62.2844 2.4C76.2844 2.4 88.0177 4.13333 97.4844 7.59999C106.951 11.0667 114.484 15.8 120.084 21.8C125.684 27.6667 129.684 34.4667 132.084 42.2C134.618 49.9333 135.884 58.0667 135.884 66.6C135.884 75.2667 134.551 83.5333 131.884 91.4C129.218 99.2667 124.951 106.267 119.084 112.4C113.351 118.4 105.818 123.2 96.4844 126.8C87.151 130.267 75.751 132 62.2844 132H0.0843753V2.4H62.2844ZM22.8844 112H62.0844C71.951 112 80.151 110.733 86.6844 108.2C93.2177 105.667 98.4177 102.267 102.284 98C106.151 93.6 108.884 88.7333 110.484 83.4C112.084 77.9333 112.884 72.3333 112.884 66.6C112.884 60.8667 112.084 55.4 110.484 50.2C108.884 44.8667 106.151 40.1333 102.284 36C98.4177 31.7333 93.2177 28.4 86.6844 26C80.151 23.4667 71.951 22.2 62.0844 22.2H22.8844V112ZM161.608 132V2.4H238.208C247.808 2.4 256.141 3.8 263.208 6.59999C270.274 9.26666 275.741 13.4667 279.608 19.2C283.474 24.8 285.408 32 285.408 40.8C285.408 46.6667 284.408 51.7333 282.408 56C280.408 60.1333 277.608 63.5333 274.008 66.2C270.408 68.8667 266.208 70.9333 261.408 72.4C256.741 73.8667 251.741 74.8 246.408 75.2L244.408 73.8C252.941 73.9333 260.008 74.7333 265.608 76.2C271.208 77.5333 275.474 80.1333 278.408 84C281.341 87.7333 282.808 93.2667 282.808 100.6V132H260.208V101.8C260.208 96.7333 259.274 92.8 257.408 90C255.674 87.0667 252.608 85.0667 248.208 84C243.941 82.8 237.808 82.2 229.808 82.2H184.408V132H161.608ZM184.408 63.6H238.208C246.208 63.6 252.274 61.6 256.408 57.6C260.541 53.6 262.608 48.3333 262.608 41.8C262.608 35.5333 260.541 30.7333 256.408 27.4C252.274 23.9333 246.208 22.2 238.208 22.2H184.408V63.6ZM316.97 2.4H339.77V132H316.97V2.4ZM416.894 132L363.094 2.4H387.894L434.094 118.2H426.694L472.694 2.4H497.094L443.894 132H416.894ZM579.069 134.4C563.869 134.4 550.602 131.667 539.269 126.2C528.069 120.733 519.335 113 513.069 103C506.935 93 503.869 81.0667 503.869 67.2C503.869 53.3333 506.935 41.4 513.069 31.4C519.335 21.2667 528.069 13.5333 539.269 8.2C550.602 2.73333 563.869 -5.24521e-06 579.069 -5.24521e-06C594.402 -5.24521e-06 607.669 2.73333 618.869 8.2C630.069 13.5333 638.735 21.2667 644.869 31.4C651.135 41.4 654.269 53.3333 654.269 67.2C654.269 81.0667 651.135 93 644.869 103C638.735 113 630.069 120.733 618.869 126.2C607.669 131.667 594.402 134.4 579.069 134.4ZM579.069 114.4C589.202 114.4 598.135 112.667 605.869 109.2C613.602 105.733 619.669 100.533 624.069 93.6C628.602 86.5333 630.869 77.7333 630.869 67.2C630.869 56.8 628.602 48.1333 624.069 41.2C619.669 34.1333 613.602 28.8667 605.869 25.4C598.135 21.8 589.202 20 579.069 20C569.069 20 560.135 21.8 552.269 25.4C544.402 28.8667 538.202 34.1333 533.669 41.2C529.135 48.1333 526.869 56.8 526.869 67.2C526.869 77.7333 529.135 86.5333 533.669 93.6C538.202 100.533 544.402 105.733 552.269 109.2C560.135 112.667 569.069 114.4 579.069 114.4ZM764.759 2.4H791.759L735.359 73L734.759 73.6L691.559 132H664.359L722.159 57.6L722.759 57.2L764.759 2.4ZM693.559 2.4L734.559 57.4L734.759 57.8L792.159 132H763.359L721.159 73L720.759 72.6L666.359 2.4H693.559ZM838.509 76.8V112.4H929.509V132H815.709V2.4H929.309V22H838.509V58H912.909V76.8H838.509Z"/>
</mask>
<path d="M62.2844 2.4C76.2844 2.4 88.0177 4.13333 97.4844 7.59999C106.951 11.0667 114.484 15.8 120.084 21.8C125.684 27.6667 129.684 34.4667 132.084 42.2C134.618 49.9333 135.884 58.0667 135.884 66.6C135.884 75.2667 134.551 83.5333 131.884 91.4C129.218 99.2667 124.951 106.267 119.084 112.4C113.351 118.4 105.818 123.2 96.4844 126.8C87.151 130.267 75.751 132 62.2844 132H0.0843753V2.4H62.2844ZM22.8844 112H62.0844C71.951 112 80.151 110.733 86.6844 108.2C93.2177 105.667 98.4177 102.267 102.284 98C106.151 93.6 108.884 88.7333 110.484 83.4C112.084 77.9333 112.884 72.3333 112.884 66.6C112.884 60.8667 112.084 55.4 110.484 50.2C108.884 44.8667 106.151 40.1333 102.284 36C98.4177 31.7333 93.2177 28.4 86.6844 26C80.151 23.4667 71.951 22.2 62.0844 22.2H22.8844V112ZM161.608 132V2.4H238.208C247.808 2.4 256.141 3.8 263.208 6.59999C270.274 9.26666 275.741 13.4667 279.608 19.2C283.474 24.8 285.408 32 285.408 40.8C285.408 46.6667 284.408 51.7333 282.408 56C280.408 60.1333 277.608 63.5333 274.008 66.2C270.408 68.8667 266.208 70.9333 261.408 72.4C256.741 73.8667 251.741 74.8 246.408 75.2L244.408 73.8C252.941 73.9333 260.008 74.7333 265.608 76.2C271.208 77.5333 275.474 80.1333 278.408 84C281.341 87.7333 282.808 93.2667 282.808 100.6V132H260.208V101.8C260.208 96.7333 259.274 92.8 257.408 90C255.674 87.0667 252.608 85.0667 248.208 84C243.941 82.8 237.808 82.2 229.808 82.2H184.408V132H161.608ZM184.408 63.6H238.208C246.208 63.6 252.274 61.6 256.408 57.6C260.541 53.6 262.608 48.3333 262.608 41.8C262.608 35.5333 260.541 30.7333 256.408 27.4C252.274 23.9333 246.208 22.2 238.208 22.2H184.408V63.6ZM316.97 2.4H339.77V132H316.97V2.4ZM416.894 132L363.094 2.4H387.894L434.094 118.2H426.694L472.694 2.4H497.094L443.894 132H416.894ZM579.069 134.4C563.869 134.4 550.602 131.667 539.269 126.2C528.069 120.733 519.335 113 513.069 103C506.935 93 503.869 81.0667 503.869 67.2C503.869 53.3333 506.935 41.4 513.069 31.4C519.335 21.2667 528.069 13.5333 539.269 8.2C550.602 2.73333 563.869 -5.24521e-06 579.069 -5.24521e-06C594.402 -5.24521e-06 607.669 2.73333 618.869 8.2C630.069 13.5333 638.735 21.2667 644.869 31.4C651.135 41.4 654.269 53.3333 654.269 67.2C654.269 81.0667 651.135 93 644.869 103C638.735 113 630.069 120.733 618.869 126.2C607.669 131.667 594.402 134.4 579.069 134.4ZM579.069 114.4C589.202 114.4 598.135 112.667 605.869 109.2C613.602 105.733 619.669 100.533 624.069 93.6C628.602 86.5333 630.869 77.7333 630.869 67.2C630.869 56.8 628.602 48.1333 624.069 41.2C619.669 34.1333 613.602 28.8667 605.869 25.4C598.135 21.8 589.202 20 579.069 20C569.069 20 560.135 21.8 552.269 25.4C544.402 28.8667 538.202 34.1333 533.669 41.2C529.135 48.1333 526.869 56.8 526.869 67.2C526.869 77.7333 529.135 86.5333 533.669 93.6C538.202 100.533 544.402 105.733 552.269 109.2C560.135 112.667 569.069 114.4 579.069 114.4ZM764.759 2.4H791.759L735.359 73L734.759 73.6L691.559 132H664.359L722.159 57.6L722.759 57.2L764.759 2.4ZM693.559 2.4L734.559 57.4L734.759 57.8L792.159 132H763.359L721.159 73L720.759 72.6L666.359 2.4H693.559ZM838.509 76.8V112.4H929.509V132H815.709V2.4H929.309V22H838.509V58H912.909V76.8H838.509Z" fill="white"/>
<path d="M97.4844 7.59999L99.2037 2.9049V2.9049L97.4844 7.59999ZM120.084 21.8L116.429 25.2116L116.448 25.2321L116.468 25.2524L120.084 21.8ZM132.084 42.2L127.309 43.682L127.321 43.7194L127.333 43.7565L132.084 42.2ZM131.884 91.4L136.62 93.0052L131.884 91.4ZM119.084 112.4L115.471 108.944L115.469 108.946L119.084 112.4ZM96.4844 126.8L98.2253 131.487L98.2546 131.476L98.2837 131.465L96.4844 126.8ZM0.0843754 132H-4.91562V137H0.0843754V132ZM0.0843754 2.4V-2.6H-4.91562V2.4H0.0843754ZM22.8844 112H17.8844V117H22.8844V112ZM86.6844 108.2L88.492 112.862H88.492L86.6844 108.2ZM102.284 98L105.989 101.358L106.015 101.329L106.04 101.301L102.284 98ZM110.484 83.4L115.274 84.8367L115.278 84.8206L115.283 84.8045L110.484 83.4ZM110.484 50.2L105.695 51.6367L105.7 51.6536L105.705 51.6704L110.484 50.2ZM102.284 36L98.5795 39.3576L98.606 39.3869L98.633 39.4158L102.284 36ZM86.6844 26L84.8767 30.6618L84.9184 30.6779L84.9603 30.6933L86.6844 26ZM22.8844 22.2V17.2H17.8844V22.2H22.8844ZM62.2844 7.4C75.909 7.4 87.0176 9.09182 95.765 12.2951L99.2037 2.9049C89.0178 -0.825155 76.6598 -2.6 62.2844 -2.6V7.4ZM95.765 12.2951C104.66 15.5524 111.473 19.9018 116.429 25.2116L123.74 18.3884C117.495 11.6982 109.242 6.58089 99.2037 2.9049L95.765 12.2951ZM116.468 25.2524C121.535 30.5615 125.138 36.6873 127.309 43.682L136.86 40.718C134.23 32.246 129.833 24.7719 123.701 18.3476L116.468 25.2524ZM127.333 43.7565C129.694 50.9634 130.884 58.5695 130.884 66.6H140.884C140.884 57.5638 139.542 48.9032 136.836 40.6435L127.333 43.7565ZM130.884 66.6C130.884 74.7446 129.633 82.4673 127.149 89.7948L136.62 93.0052C139.469 84.5993 140.884 75.7887 140.884 66.6H130.884ZM127.149 89.7948C124.722 96.9546 120.844 103.326 115.471 108.944L122.698 115.856C129.058 109.207 133.713 101.579 136.62 93.0052L127.149 89.7948ZM115.469 108.946C110.338 114.315 103.47 118.746 94.685 122.135L98.2837 131.465C108.165 127.654 116.364 122.485 122.699 115.854L115.469 108.946ZM94.7434 122.113C86.1254 125.314 75.3528 127 62.2844 127V137C76.1493 137 88.1767 135.219 98.2253 131.487L94.7434 122.113ZM62.2844 127H0.0843754V137H62.2844V127ZM5.08438 132V2.4H-4.91562V132H5.08438ZM0.0843754 7.4H62.2844V-2.6H0.0843754V7.4ZM22.8844 117H62.0844V107H22.8844V117ZM62.0844 117C72.3362 117 81.1988 115.69 88.492 112.862L84.8767 103.538C79.1033 105.777 71.5659 107 62.0844 107V117ZM88.492 112.862C95.5956 110.107 101.499 106.312 105.989 101.358L98.5795 94.6424C95.3364 98.2209 90.8399 101.226 84.8767 103.538L88.492 112.862ZM106.04 101.301C110.356 96.3894 113.456 90.894 115.274 84.8367L105.695 81.9633C104.312 86.5726 101.946 90.8106 98.5286 94.6994L106.04 101.301ZM115.283 84.8045C117.017 78.8786 117.884 72.8055 117.884 66.6H107.884C107.884 71.8611 107.151 76.9881 105.686 81.9955L115.283 84.8045ZM117.884 66.6C117.884 60.3951 117.018 54.431 115.263 48.7296L105.705 51.6704C107.151 56.369 107.884 61.3382 107.884 66.6H117.884ZM115.274 48.7633C113.448 42.6788 110.32 37.271 105.936 32.5842L98.633 39.4158C101.982 42.9956 104.321 47.0545 105.695 51.6367L115.274 48.7633ZM105.989 32.6424C101.478 27.6643 95.5434 23.9276 88.4085 21.3066L84.9603 30.6933C90.892 32.8723 95.3575 35.8024 98.5795 39.3576L105.989 32.6424ZM88.492 21.3382C81.1988 18.5102 72.3362 17.2 62.0844 17.2V27.2C71.5659 27.2 79.1033 28.4231 84.8767 30.6618L88.492 21.3382ZM62.0844 17.2H22.8844V27.2H62.0844V17.2ZM17.8844 22.2V112H27.8844V22.2H17.8844ZM161.608 132H156.608V137H161.608V132ZM161.608 2.4V-2.6H156.608V2.4H161.608ZM263.208 6.59999L261.366 11.2484L261.404 11.2635L261.443 11.278L263.208 6.59999ZM279.608 19.2L275.462 21.9957L275.478 22.0184L275.493 22.041L279.608 19.2ZM282.408 56L286.909 58.1778L286.922 58.1501L286.935 58.1222L282.408 56ZM274.008 66.2L271.032 62.1822V62.1822L274.008 66.2ZM261.408 72.4L259.947 67.6182L259.928 67.6241L259.909 67.63L261.408 72.4ZM246.408 75.2L243.54 79.2962L245.002 80.3195L246.782 80.186L246.408 75.2ZM244.408 73.8L244.486 68.8006L228.183 68.5459L241.54 77.8962L244.408 73.8ZM265.608 76.2L264.341 81.0369L264.395 81.0511L264.45 81.064L265.608 76.2ZM278.408 84L274.424 87.0219L274.45 87.0557L274.476 87.0891L278.408 84ZM282.808 132V137H287.808V132H282.808ZM260.208 132H255.208V137H260.208V132ZM257.408 90L253.103 92.5436L253.172 92.6605L253.248 92.7735L257.408 90ZM248.208 84L246.854 88.8133L246.942 88.8378L247.03 88.8592L248.208 84ZM184.408 82.2V77.2H179.408V82.2H184.408ZM184.408 132V137H189.408V132H184.408ZM184.408 63.6H179.408V68.6H184.408V63.6ZM256.408 57.6L259.885 61.193L256.408 57.6ZM256.408 27.4L253.195 31.231L253.232 31.2619L253.269 31.2921L256.408 27.4ZM184.408 22.2V17.2H179.408V22.2H184.408ZM166.608 132V2.4H156.608V132H166.608ZM161.608 7.4H238.208V-2.6H161.608V7.4ZM238.208 7.4C247.336 7.4 255.017 8.73293 261.366 11.2484L265.05 1.95159C257.265 -1.13293 248.279 -2.6 238.208 -2.6V7.4ZM261.443 11.278C267.634 13.6144 272.229 17.2008 275.462 21.9957L283.753 16.4043C279.254 9.7325 272.915 4.91895 264.973 1.92198L261.443 11.278ZM275.493 22.041C278.635 26.5916 280.408 32.7191 280.408 40.8H290.408C290.408 31.2809 288.314 23.0084 283.722 16.359L275.493 22.041ZM280.408 40.8C280.408 46.1082 279.503 50.4174 277.881 53.8778L286.935 58.1222C289.313 53.0493 290.408 47.2251 290.408 40.8H280.408ZM277.907 53.8222C276.25 57.2468 273.966 60.0089 271.032 62.1822L276.984 70.2178C281.25 67.0577 284.566 63.0198 286.909 58.1778L277.907 53.8222ZM271.032 62.1822C267.941 64.4715 264.267 66.2982 259.947 67.6182L262.869 77.1818C268.149 75.5685 272.875 73.2618 276.984 70.2178L271.032 62.1822ZM259.909 67.63C255.64 68.9717 251.02 69.84 246.034 70.214L246.782 80.186C252.462 79.76 257.843 78.7616 262.907 77.17L259.909 67.63ZM249.275 71.1038L247.275 69.7038L241.54 77.8962L243.54 79.2962L249.275 71.1038ZM244.33 78.7994C252.632 78.9291 259.265 79.7075 264.341 81.0369L266.875 71.3631C260.75 69.7592 253.25 68.9375 244.486 68.8006L244.33 78.7994ZM264.45 81.064C269.142 82.1812 272.316 84.2427 274.424 87.0219L282.391 80.9781C278.633 76.024 273.274 72.8854 266.766 71.336L264.45 81.064ZM274.476 87.0891C276.43 89.5758 277.808 93.8106 277.808 100.6H287.808C287.808 92.7227 286.252 85.8908 282.339 80.9109L274.476 87.0891ZM277.808 100.6V132H287.808V100.6H277.808ZM282.808 127H260.208V137H282.808V127ZM265.208 132V101.8H255.208V132H265.208ZM265.208 101.8C265.208 96.2138 264.194 91.1656 261.568 87.2265L253.248 92.7735C254.355 94.4343 255.208 97.2528 255.208 101.8H265.208ZM261.712 87.4564C259.089 83.016 254.65 80.4168 249.386 79.1407L247.03 88.8592C250.566 89.7165 252.26 91.1174 253.103 92.5436L261.712 87.4564ZM249.562 79.1867C244.635 77.8011 237.961 77.2 229.808 77.2V87.2C237.655 87.2 243.247 87.7989 246.854 88.8133L249.562 79.1867ZM229.808 77.2H184.408V87.2H229.808V77.2ZM179.408 82.2V132H189.408V82.2H179.408ZM184.408 127H161.608V137H184.408V127ZM184.408 68.6H238.208V58.6H184.408V68.6ZM238.208 68.6C246.992 68.6 254.506 66.3986 259.885 61.193L252.931 54.007C250.043 56.8014 245.424 58.6 238.208 58.6V68.6ZM259.885 61.193C265.127 56.1197 267.608 49.4865 267.608 41.8H257.608C257.608 47.1802 255.955 51.0803 252.931 54.007L259.885 61.193ZM267.608 41.8C267.608 34.3252 265.075 27.9661 259.547 23.5079L253.269 31.2921C256.008 33.5006 257.608 36.7415 257.608 41.8H267.608ZM259.621 23.569C254.241 19.0567 246.833 17.2 238.208 17.2V27.2C245.582 27.2 250.308 28.81 253.195 31.231L259.621 23.569ZM238.208 17.2H184.408V27.2H238.208V17.2ZM179.408 22.2V63.6H189.408V22.2H179.408ZM316.97 2.4V-2.6H311.97V2.4H316.97ZM339.77 2.4H344.77V-2.6H339.77V2.4ZM339.77 132V137H344.77V132H339.77ZM316.97 132H311.97V137H316.97V132ZM316.97 7.4H339.77V-2.6H316.97V7.4ZM334.77 2.4V132H344.77V2.4H334.77ZM339.77 127H316.97V137H339.77V127ZM321.97 132V2.4H311.97V132H321.97ZM416.894 132L412.276 133.917L413.556 137H416.894V132ZM363.094 2.4V-2.6H355.604L358.476 4.317L363.094 2.4ZM387.894 2.4L392.538 0.547196L391.282 -2.6H387.894V2.4ZM434.094 118.2V123.2H441.472L438.738 116.347L434.094 118.2ZM426.694 118.2L422.047 116.354L419.328 123.2H426.694V118.2ZM472.694 2.4V-2.6H469.3L468.047 0.554121L472.694 2.4ZM497.094 2.4L501.719 4.29872L504.551 -2.6H497.094V2.4ZM443.894 132V137H447.246L448.519 133.899L443.894 132ZM421.512 130.083L367.712 0.482997L358.476 4.317L412.276 133.917L421.512 130.083ZM363.094 7.4H387.894V-2.6H363.094V7.4ZM383.25 4.2528L429.45 120.053L438.738 116.347L392.538 0.547196L383.25 4.2528ZM434.094 113.2H426.694V123.2H434.094V113.2ZM431.341 120.046L477.341 4.24588L468.047 0.554121L422.047 116.354L431.341 120.046ZM472.694 7.4H497.094V-2.6H472.694V7.4ZM492.468 0.501278L439.268 130.101L448.519 133.899L501.719 4.29872L492.468 0.501278ZM443.894 127H416.894V137H443.894V127ZM539.269 126.2L537.076 130.693L537.086 130.698L537.096 130.703L539.269 126.2ZM513.069 103L508.807 105.614L508.819 105.635L508.832 105.655L513.069 103ZM513.069 31.4L508.816 28.7701L508.811 28.778L508.807 28.7859L513.069 31.4ZM539.269 8.2L541.418 12.7143L541.43 12.7089L541.441 12.7035L539.269 8.2ZM618.869 8.2L616.676 12.6933L616.697 12.7039L616.719 12.7143L618.869 8.2ZM644.869 31.4L640.591 33.989L640.611 34.0222L640.632 34.0551L644.869 31.4ZM644.869 103L640.632 100.345L640.619 100.365L640.607 100.386L644.869 103ZM618.869 126.2L616.676 121.707L618.869 126.2ZM605.869 109.2L607.914 113.763L605.869 109.2ZM624.069 93.6L619.86 90.9002L619.854 90.9105L619.847 90.9209L624.069 93.6ZM624.069 41.2L619.824 43.8428L619.854 43.8898L619.884 43.9362L624.069 41.2ZM605.869 25.4L603.759 29.9329L603.791 29.948L603.823 29.9625L605.869 25.4ZM552.269 25.4L554.285 29.9754L554.317 29.9612L554.349 29.9465L552.269 25.4ZM533.669 41.2L537.854 43.9362L537.865 43.9181L537.877 43.8998L533.669 41.2ZM533.669 93.6L529.46 96.2998L529.472 96.3181L529.484 96.3363L533.669 93.6ZM552.269 109.2L550.252 113.775L552.269 109.2ZM579.069 129.4C564.467 129.4 551.97 126.775 541.441 121.697L537.096 130.703C549.234 136.558 563.271 139.4 579.069 139.4V129.4ZM541.462 121.707C531.052 116.626 523.048 109.508 517.306 100.345L508.832 105.655C515.623 116.492 525.085 124.841 537.076 130.693L541.462 121.707ZM517.331 100.386C511.762 91.3057 508.869 80.3138 508.869 67.2H498.869C498.869 81.8196 502.109 94.6943 508.807 105.614L517.331 100.386ZM508.869 67.2C508.869 54.0862 511.762 43.0943 517.331 34.0141L508.807 28.7859C502.109 39.7057 498.869 52.5804 498.869 67.2H508.869ZM517.321 34.0298C523.061 24.7484 531.048 17.6525 541.418 12.7143L537.119 3.68569C525.089 9.41417 515.61 17.7849 508.816 28.7701L517.321 34.0298ZM541.441 12.7035C551.97 7.62455 564.467 4.99999 579.069 4.99999V-5.00001C563.271 -5.00001 549.234 -2.15789 537.096 3.69652L541.441 12.7035ZM579.069 4.99999C593.814 4.99999 606.298 7.62793 616.676 12.6933L621.062 3.70667C609.04 -2.16127 594.991 -5.00001 579.069 -5.00001V4.99999ZM616.719 12.7143C627.081 17.6485 634.988 24.7323 640.591 33.989L649.146 28.811C642.482 17.801 633.057 9.41816 621.018 3.68569L616.719 12.7143ZM640.632 34.0551C646.318 43.1288 649.269 54.1056 649.269 67.2H659.269C659.269 52.561 655.953 39.6712 649.106 28.7449L640.632 34.0551ZM649.269 67.2C649.269 80.2944 646.318 91.2712 640.632 100.345L649.106 105.655C655.953 94.7288 659.269 81.839 659.269 67.2H649.269ZM640.607 100.386C635.002 109.524 627.077 116.63 616.676 121.707L621.062 130.693C633.06 124.837 642.469 116.476 649.131 105.614L640.607 100.386ZM616.676 121.707C606.298 126.772 593.814 129.4 579.069 129.4V139.4C594.991 139.4 609.04 136.561 621.062 130.693L616.676 121.707ZM579.069 119.4C589.771 119.4 599.424 117.568 607.914 113.763L603.823 104.637C596.847 107.765 588.633 109.4 579.069 109.4V119.4ZM607.914 113.763C616.511 109.909 623.348 104.068 628.29 96.2791L619.847 90.9209C615.99 96.999 610.693 101.558 603.823 104.637L607.914 113.763ZM628.277 96.2998C633.445 88.2449 635.869 78.4476 635.869 67.2H625.869C625.869 77.0191 623.76 84.8217 619.86 90.9002L628.277 96.2998ZM635.869 67.2C635.869 56.0759 633.44 46.3958 628.254 38.4637L619.884 43.9362C623.764 49.8709 625.869 57.5241 625.869 67.2H635.869ZM628.313 38.5572C623.377 30.63 616.538 24.7032 607.914 20.8374L603.823 29.9625C610.667 33.0301 615.96 37.6366 619.824 43.8428L628.313 38.5572ZM607.979 20.8671C599.472 16.907 589.796 15 579.069 15V25C588.608 25 596.799 26.693 603.759 29.9329L607.979 20.8671ZM579.069 15C568.462 15 558.802 16.9115 550.188 20.8534L554.349 29.9465C561.469 26.6885 569.675 25 579.069 25V15ZM550.252 20.8246C541.509 24.6774 534.537 30.5858 529.46 38.5002L537.877 43.8998C541.867 37.6809 547.295 33.0559 554.285 29.9754L550.252 20.8246ZM529.484 38.4637C524.298 46.3958 521.869 56.0759 521.869 67.2H531.869C531.869 57.5241 533.973 49.8709 537.854 43.9362L529.484 38.4637ZM521.869 67.2C521.869 78.4476 524.293 88.2449 529.46 96.2998L537.877 90.9002C533.978 84.8217 531.869 77.0191 531.869 67.2H521.869ZM529.484 96.3363C534.568 104.111 541.535 109.934 550.252 113.775L554.285 104.625C547.269 101.533 541.837 96.9554 537.854 90.8638L529.484 96.3363ZM550.252 113.775C558.85 117.564 568.487 119.4 579.069 119.4V109.4C569.651 109.4 561.421 107.769 554.285 104.625L550.252 113.775ZM764.759 2.4V-2.6H762.292L760.791 -0.64155L764.759 2.4ZM791.759 2.4L795.666 5.52078L802.153 -2.6H791.759V2.4ZM735.359 73L738.895 76.5355L739.092 76.3385L739.266 76.1208L735.359 73ZM734.759 73.6L731.224 70.0645L730.961 70.3275L730.74 70.6265L734.759 73.6ZM691.559 132V137H694.08L695.579 134.974L691.559 132ZM664.359 132L660.411 128.933L654.143 137H664.359V132ZM722.159 57.6L719.386 53.4398L718.71 53.8906L718.211 54.5325L722.159 57.6ZM722.759 57.2L725.533 61.3602L726.223 60.9L726.728 60.2415L722.759 57.2ZM693.559 2.4L697.568 -0.588326L696.068 -2.6H693.559V2.4ZM734.559 57.4L739.032 55.164L738.833 54.7673L738.568 54.4117L734.559 57.4ZM734.759 57.8L730.287 60.036L730.506 60.473L730.805 60.8594L734.759 57.8ZM792.159 132V137H802.349L796.114 128.941L792.159 132ZM763.359 132L759.293 134.909L760.788 137H763.359V132ZM721.159 73L725.226 70.0912L724.986 69.7559L724.695 69.4645L721.159 73ZM720.759 72.6L716.807 75.6627L717.001 75.9122L717.224 76.1355L720.759 72.6ZM666.359 2.4V-2.6H656.159L662.407 5.46268L666.359 2.4ZM764.759 7.4H791.759V-2.6H764.759V7.4ZM787.853 -0.720776L731.453 69.8792L739.266 76.1208L795.666 5.52078L787.853 -0.720776ZM731.824 69.4645L731.224 70.0645L738.295 77.1355L738.895 76.5355L731.824 69.4645ZM730.74 70.6265L687.54 129.026L695.579 134.974L738.779 76.5735L730.74 70.6265ZM691.559 127H664.359V137H691.559V127ZM668.308 135.068L726.108 60.6675L718.211 54.5325L660.411 128.933L668.308 135.068ZM724.933 61.7602L725.533 61.3602L719.986 53.0398L719.386 53.4398L724.933 61.7602ZM726.728 60.2415L768.728 5.44155L760.791 -0.64155L718.791 54.1584L726.728 60.2415ZM689.551 5.38833L730.551 60.3883L738.568 54.4117L697.568 -0.588326L689.551 5.38833ZM730.087 59.636L730.287 60.036L739.232 55.564L739.032 55.164L730.087 59.636ZM730.805 60.8594L788.205 135.059L796.114 128.941L738.714 54.7406L730.805 60.8594ZM792.159 127H763.359V137H792.159V127ZM767.426 129.091L725.226 70.0912L717.093 75.9088L759.293 134.909L767.426 129.091ZM724.695 69.4645L724.295 69.0645L717.224 76.1355L717.624 76.5355L724.695 69.4645ZM724.712 69.5373L670.312 -0.662683L662.407 5.46268L716.807 75.6627L724.712 69.5373ZM666.359 7.4H693.559V-2.6H666.359V7.4ZM838.509 76.8V71.8H833.509V76.8H838.509ZM838.509 112.4H833.509V117.4H838.509V112.4ZM929.509 112.4H934.509V107.4H929.509V112.4ZM929.509 132V137H934.509V132H929.509ZM815.709 132H810.709V137H815.709V132ZM815.709 2.4V-2.6H810.709V2.4H815.709ZM929.309 2.4H934.309V-2.6H929.309V2.4ZM929.309 22V27H934.309V22H929.309ZM838.509 22V17H833.509V22H838.509ZM838.509 58H833.509V63H838.509V58ZM912.909 58H917.909V53H912.909V58ZM912.909 76.8V81.8H917.909V76.8H912.909ZM833.509 76.8V112.4H843.509V76.8H833.509ZM838.509 117.4H929.509V107.4H838.509V117.4ZM924.509 112.4V132H934.509V112.4H924.509ZM929.509 127H815.709V137H929.509V127ZM820.709 132V2.4H810.709V132H820.709ZM815.709 7.4H929.309V-2.6H815.709V7.4ZM924.309 2.4V22H934.309V2.4H924.309ZM929.309 17H838.509V27H929.309V17ZM833.509 22V58H843.509V22H833.509ZM838.509 63H912.909V53H838.509V63ZM907.909 58V76.8H917.909V58H907.909ZM912.909 71.8H838.509V81.8H912.909V71.8Z" fill="white" mask="url(#path-1-outside-1_88_976)"/>
</g>
</svg>
