<svg width="148" height="21" viewBox="0 0 148 21" fill="none" xmlns="http://www.w3.org/2000/svg">
<mask id="path-1-outside-1_92_2054" maskUnits="userSpaceOnUse" x="-1" y="-1" width="150" height="23" fill="black">
<rect fill="white" x="-1" y="-1" width="150" height="23"/>
<path d="M9.67 0.56C11.77 0.56 13.53 0.82 14.95 1.34C16.37 1.86 17.5 2.57 18.34 3.47C19.18 4.35 19.78 5.37 20.14 6.53C20.52 7.69 20.71 8.91 20.71 10.19C20.71 11.49 20.51 12.73 20.11 13.91C19.71 15.09 19.07 16.14 18.19 17.06C17.33 17.96 16.2 18.68 14.8 19.22C13.4 19.74 11.69 20 9.67 20H0.34V0.56H9.67ZM3.76 17H9.64C11.12 17 12.35 16.81 13.33 16.43C14.31 16.05 15.09 15.54 15.67 14.9C16.25 14.24 16.66 13.51 16.9 12.71C17.14 11.89 17.26 11.05 17.26 10.19C17.26 9.33 17.14 8.51 16.9 7.73C16.66 6.93 16.25 6.22 15.67 5.6C15.09 4.96 14.31 4.46 13.33 4.1C12.35 3.72 11.12 3.53 9.64 3.53H3.76V17ZM24.5685 20V0.56H36.0585C37.4985 0.56 38.7485 0.77 39.8085 1.19C40.8685 1.59 41.6885 2.22 42.2685 3.08C42.8485 3.92 43.1385 5 43.1385 6.32C43.1385 7.2 42.9885 7.96 42.6885 8.6C42.3885 9.22 41.9685 9.73 41.4285 10.13C40.8885 10.53 40.2585 10.84 39.5385 11.06C38.8385 11.28 38.0885 11.42 37.2885 11.48L36.9885 11.27C38.2685 11.29 39.3285 11.41 40.1685 11.63C41.0085 11.83 41.6485 12.22 42.0885 12.8C42.5285 13.36 42.7485 14.19 42.7485 15.29V20H39.3585V15.47C39.3585 14.71 39.2185 14.12 38.9385 13.7C38.6785 13.26 38.2185 12.96 37.5585 12.8C36.9185 12.62 35.9985 12.53 34.7985 12.53H27.9885V20H24.5685ZM27.9885 9.74H36.0585C37.2585 9.74 38.1685 9.44 38.7885 8.84C39.4085 8.24 39.7185 7.45 39.7185 6.47C39.7185 5.53 39.4085 4.81 38.7885 4.31C38.1685 3.79 37.2585 3.53 36.0585 3.53H27.9885V9.74ZM47.8729 0.56H51.2929V20H47.8729V0.56ZM62.8614 20L54.7914 0.56H58.5114L65.4414 17.93H64.3314L71.2314 0.56H74.8914L66.9114 20H62.8614ZM87.1877 20.36C84.9077 20.36 82.9177 19.95 81.2177 19.13C79.5377 18.31 78.2277 17.15 77.2877 15.65C76.3677 14.15 75.9077 12.36 75.9077 10.28C75.9077 8.2 76.3677 6.41 77.2877 4.91C78.2277 3.39 79.5377 2.23 81.2177 1.43C82.9177 0.609999 84.9077 0.199999 87.1877 0.199999C89.4877 0.199999 91.4777 0.609999 93.1577 1.43C94.8377 2.23 96.1377 3.39 97.0577 4.91C97.9977 6.41 98.4677 8.2 98.4677 10.28C98.4677 12.36 97.9977 14.15 97.0577 15.65C96.1377 17.15 94.8377 18.31 93.1577 19.13C91.4777 19.95 89.4877 20.36 87.1877 20.36ZM87.1877 17.36C88.7077 17.36 90.0477 17.1 91.2077 16.58C92.3677 16.06 93.2777 15.28 93.9377 14.24C94.6177 13.18 94.9577 11.86 94.9577 10.28C94.9577 8.72 94.6177 7.42 93.9377 6.38C93.2777 5.32 92.3677 4.53 91.2077 4.01C90.0477 3.47 88.7077 3.2 87.1877 3.2C85.6877 3.2 84.3477 3.47 83.1677 4.01C81.9877 4.53 81.0577 5.32 80.3777 6.38C79.6977 7.42 79.3577 8.72 79.3577 10.28C79.3577 11.86 79.6977 13.18 80.3777 14.24C81.0577 15.28 81.9877 16.06 83.1677 16.58C84.3477 17.1 85.6877 17.36 87.1877 17.36ZM115.041 0.56H119.091L110.631 11.15L110.541 11.24L104.061 20H99.9813L108.651 8.84L108.741 8.78L115.041 0.56ZM104.361 0.56L110.511 8.81L110.541 8.87L119.151 20H114.831L108.501 11.15L108.441 11.09L100.281 0.56H104.361ZM126.104 11.72V17.06H139.754V20H122.684V0.56H139.724V3.5H126.104V8.9H137.264V11.72H126.104ZM147.405 16.76V20H143.415V16.76H147.405Z"/>
</mask>
<path d="M9.67 0.56C11.77 0.56 13.53 0.82 14.95 1.34C16.37 1.86 17.5 2.57 18.34 3.47C19.18 4.35 19.78 5.37 20.14 6.53C20.52 7.69 20.71 8.91 20.71 10.19C20.71 11.49 20.51 12.73 20.11 13.91C19.71 15.09 19.07 16.14 18.19 17.06C17.33 17.96 16.2 18.68 14.8 19.22C13.4 19.74 11.69 20 9.67 20H0.34V0.56H9.67ZM3.76 17H9.64C11.12 17 12.35 16.81 13.33 16.43C14.31 16.05 15.09 15.54 15.67 14.9C16.25 14.24 16.66 13.51 16.9 12.71C17.14 11.89 17.26 11.05 17.26 10.19C17.26 9.33 17.14 8.51 16.9 7.73C16.66 6.93 16.25 6.22 15.67 5.6C15.09 4.96 14.31 4.46 13.33 4.1C12.35 3.72 11.12 3.53 9.64 3.53H3.76V17ZM24.5685 20V0.56H36.0585C37.4985 0.56 38.7485 0.77 39.8085 1.19C40.8685 1.59 41.6885 2.22 42.2685 3.08C42.8485 3.92 43.1385 5 43.1385 6.32C43.1385 7.2 42.9885 7.96 42.6885 8.6C42.3885 9.22 41.9685 9.73 41.4285 10.13C40.8885 10.53 40.2585 10.84 39.5385 11.06C38.8385 11.28 38.0885 11.42 37.2885 11.48L36.9885 11.27C38.2685 11.29 39.3285 11.41 40.1685 11.63C41.0085 11.83 41.6485 12.22 42.0885 12.8C42.5285 13.36 42.7485 14.19 42.7485 15.29V20H39.3585V15.47C39.3585 14.71 39.2185 14.12 38.9385 13.7C38.6785 13.26 38.2185 12.96 37.5585 12.8C36.9185 12.62 35.9985 12.53 34.7985 12.53H27.9885V20H24.5685ZM27.9885 9.74H36.0585C37.2585 9.74 38.1685 9.44 38.7885 8.84C39.4085 8.24 39.7185 7.45 39.7185 6.47C39.7185 5.53 39.4085 4.81 38.7885 4.31C38.1685 3.79 37.2585 3.53 36.0585 3.53H27.9885V9.74ZM47.8729 0.56H51.2929V20H47.8729V0.56ZM62.8614 20L54.7914 0.56H58.5114L65.4414 17.93H64.3314L71.2314 0.56H74.8914L66.9114 20H62.8614ZM87.1877 20.36C84.9077 20.36 82.9177 19.95 81.2177 19.13C79.5377 18.31 78.2277 17.15 77.2877 15.65C76.3677 14.15 75.9077 12.36 75.9077 10.28C75.9077 8.2 76.3677 6.41 77.2877 4.91C78.2277 3.39 79.5377 2.23 81.2177 1.43C82.9177 0.609999 84.9077 0.199999 87.1877 0.199999C89.4877 0.199999 91.4777 0.609999 93.1577 1.43C94.8377 2.23 96.1377 3.39 97.0577 4.91C97.9977 6.41 98.4677 8.2 98.4677 10.28C98.4677 12.36 97.9977 14.15 97.0577 15.65C96.1377 17.15 94.8377 18.31 93.1577 19.13C91.4777 19.95 89.4877 20.36 87.1877 20.36ZM87.1877 17.36C88.7077 17.36 90.0477 17.1 91.2077 16.58C92.3677 16.06 93.2777 15.28 93.9377 14.24C94.6177 13.18 94.9577 11.86 94.9577 10.28C94.9577 8.72 94.6177 7.42 93.9377 6.38C93.2777 5.32 92.3677 4.53 91.2077 4.01C90.0477 3.47 88.7077 3.2 87.1877 3.2C85.6877 3.2 84.3477 3.47 83.1677 4.01C81.9877 4.53 81.0577 5.32 80.3777 6.38C79.6977 7.42 79.3577 8.72 79.3577 10.28C79.3577 11.86 79.6977 13.18 80.3777 14.24C81.0577 15.28 81.9877 16.06 83.1677 16.58C84.3477 17.1 85.6877 17.36 87.1877 17.36ZM115.041 0.56H119.091L110.631 11.15L110.541 11.24L104.061 20H99.9813L108.651 8.84L108.741 8.78L115.041 0.56ZM104.361 0.56L110.511 8.81L110.541 8.87L119.151 20H114.831L108.501 11.15L108.441 11.09L100.281 0.56H104.361ZM126.104 11.72V17.06H139.754V20H122.684V0.56H139.724V3.5H126.104V8.9H137.264V11.72H126.104ZM147.405 16.76V20H143.415V16.76H147.405Z" fill="white"/>
<path d="M14.95 1.34L15.2939 0.40098V0.40098L14.95 1.34ZM18.34 3.47L17.6089 4.15236L17.6166 4.16048L18.34 3.47ZM20.14 6.53L19.1849 6.8264L19.1873 6.83387L19.1897 6.84131L20.14 6.53ZM20.11 13.91L21.0571 14.231V14.231L20.11 13.91ZM18.19 17.06L17.4674 16.3688L17.467 16.3691L18.19 17.06ZM14.8 19.22L15.1482 20.1575L15.1599 20.153L14.8 19.22ZM0.34 20H-0.66V21H0.34V20ZM0.34 0.56V-0.44H-0.66V0.56H0.34ZM3.76 17H2.76V18H3.76V17ZM13.33 16.43L13.6915 17.3624L13.33 16.43ZM15.67 14.9L16.411 15.5715L16.4161 15.5659L16.4212 15.5601L15.67 14.9ZM16.9 12.71L17.8578 12.9974L17.8597 12.9909L16.9 12.71ZM16.9 7.73L15.9422 8.01735L15.9442 8.02409L16.9 7.73ZM15.67 5.6L14.929 6.27152L14.9343 6.27738L14.9397 6.28316L15.67 5.6ZM13.33 4.1L12.9685 5.03236L12.9768 5.03559L12.9852 5.03867L13.33 4.1ZM3.76 3.53V2.53H2.76V3.53H3.76ZM9.67 1.56C11.6949 1.56 13.33 1.8117 14.6061 2.27902L15.2939 0.40098C13.73 -0.171698 11.8451 -0.44 9.67 -0.44V1.56ZM14.6061 2.27902C15.9118 2.75715 16.8978 3.39035 17.6089 4.15232L19.0711 2.78768C18.1022 1.74965 16.8282 0.962844 15.2939 0.40098L14.6061 2.27902ZM17.6166 4.16048C18.3502 4.92896 18.8708 5.81414 19.1849 6.8264L21.0951 6.2336C20.6892 4.92586 20.0098 3.77104 19.0634 2.77952L17.6166 4.16048ZM19.1897 6.84131C19.5352 7.89601 19.71 9.01057 19.71 10.19H21.71C21.71 8.80943 21.5048 7.48398 21.0903 6.21869L19.1897 6.84131ZM19.71 10.19C19.71 11.3856 19.5264 12.5168 19.1629 13.589L21.0571 14.231C21.4936 12.9432 21.71 11.5944 21.71 10.19H19.71ZM19.1629 13.589C18.8109 14.6276 18.2487 15.5519 17.4674 16.3688L18.9126 17.7512C19.8913 16.7281 20.6091 15.5524 21.0571 14.231L19.1629 13.589ZM17.467 16.3691C16.7275 17.1431 15.7305 17.7893 14.4401 18.287L15.1599 20.153C16.6695 19.5707 17.9325 18.7769 18.913 17.7509L17.467 16.3691ZM14.4518 18.2826C13.1949 18.7494 11.6103 19 9.67 19V21C11.7697 21 13.6051 20.7306 15.1482 20.1574L14.4518 18.2826ZM9.67 19H0.34V21H9.67V19ZM1.34 20V0.56H-0.66V20H1.34ZM0.34 1.56H9.67V-0.44H0.34V1.56ZM3.76 18H9.64V16H3.76V18ZM9.64 18C11.197 18 12.5596 17.8013 13.6915 17.3624L12.9685 15.4976C12.1404 15.8187 11.043 16 9.64 16V18ZM13.6915 17.3624C14.7856 16.9381 15.7063 16.3491 16.411 15.5715L14.929 14.2285C14.4737 14.7308 13.8344 15.1619 12.9685 15.4976L13.6915 17.3624ZM16.4212 15.5601C17.091 14.7979 17.5744 13.9421 17.8578 12.9973L15.9422 12.4227C15.7456 13.0779 15.409 13.6821 14.9188 14.2399L16.4212 15.5601ZM17.8597 12.9909C18.1266 12.0791 18.26 11.1444 18.26 10.19H16.26C16.26 10.9556 16.1534 11.7009 15.9403 12.4291L17.8597 12.9909ZM18.26 10.19C18.26 9.2357 18.1266 8.3162 17.8558 7.43591L15.9442 8.02409C16.1534 8.7038 16.26 9.4243 16.26 10.19H18.26ZM17.8578 7.44265C17.5728 6.49243 17.0838 5.64754 16.4003 4.91684L14.9397 6.28316C15.4162 6.79246 15.7472 7.36757 15.9422 8.01735L17.8578 7.44265ZM16.411 4.92848C15.702 4.14619 14.7751 3.56553 13.6748 3.16133L12.9852 5.03867C13.8449 5.35447 14.478 5.77381 14.929 6.27152L16.411 4.92848ZM13.6915 3.16764C12.5596 2.72871 11.197 2.53 9.64 2.53V4.53C11.043 4.53 12.1404 4.71129 12.9685 5.03236L13.6915 3.16764ZM9.64 2.53H3.76V4.53H9.64V2.53ZM2.76 3.53V17H4.76V3.53H2.76ZM24.5685 20H23.5685V21H24.5685V20ZM24.5685 0.56V-0.44H23.5685V0.56H24.5685ZM39.8085 1.19L39.4402 2.11968L39.4478 2.1227L39.4555 2.1256L39.8085 1.19ZM42.2685 3.08L41.4394 3.63917L41.4456 3.64819L42.2685 3.08ZM42.6885 8.6L43.5887 9.03559L43.594 9.02443L42.6885 8.6ZM41.4285 10.13L40.8333 9.32644L41.4285 10.13ZM39.5385 11.06L39.2463 10.1036L39.2387 10.106L39.5385 11.06ZM37.2885 11.48L36.7151 12.2992L37.0074 12.5039L37.3633 12.4772L37.2885 11.48ZM36.9885 11.27L37.0041 10.2701L33.7435 10.2192L36.4151 12.0892L36.9885 11.27ZM40.1685 11.63L39.9152 12.5974L39.926 12.6002L39.9369 12.6028L40.1685 11.63ZM42.0885 12.8L41.2918 13.4044L41.297 13.4111L41.3022 13.4178L42.0885 12.8ZM42.7485 20V21H43.7485V20H42.7485ZM39.3585 20H38.3585V21H39.3585V20ZM38.9385 13.7L38.0776 14.2087L38.0914 14.2321L38.1065 14.2547L38.9385 13.7ZM37.5585 12.8L37.2878 13.7627L37.3053 13.7676L37.3229 13.7718L37.5585 12.8ZM27.9885 12.53V11.53H26.9885V12.53H27.9885ZM27.9885 20V21H28.9885V20H27.9885ZM27.9885 9.74H26.9885V10.74H27.9885V9.74ZM38.7885 8.84L39.4839 9.5586V9.5586L38.7885 8.84ZM38.7885 4.31L38.1459 5.07619L38.1533 5.08237L38.1608 5.08841L38.7885 4.31ZM27.9885 3.53V2.53H26.9885V3.53H27.9885ZM25.5685 20V0.56H23.5685V20H25.5685ZM24.5685 1.56H36.0585V-0.44H24.5685V1.56ZM36.0585 1.56C37.4042 1.56 38.5238 1.75659 39.4402 2.11968L40.1769 0.260317C38.9733 -0.216586 37.5928 -0.44 36.0585 -0.44V1.56ZM39.4555 2.1256C40.3404 2.45954 40.986 2.96683 41.4394 3.63914L43.0976 2.52086C42.391 1.47317 41.3966 0.720457 40.1616 0.254397L39.4555 2.1256ZM41.4456 3.64819C41.8807 4.27833 42.1385 5.14383 42.1385 6.32H44.1385C44.1385 4.85617 43.8163 3.56167 43.0914 2.51181L41.4456 3.64819ZM42.1385 6.32C42.1385 7.08831 42.0075 7.69681 41.7831 8.17557L43.594 9.02443C43.9696 8.22318 44.1385 7.31169 44.1385 6.32H42.1385ZM41.7884 8.16444C41.5569 8.6427 41.2401 9.02512 40.8333 9.32644L42.0237 10.9336C42.697 10.4349 43.2201 9.7973 43.5887 9.03556L41.7884 8.16444ZM40.8333 9.32644C40.3952 9.65098 39.8703 9.91297 39.2463 10.1036L39.8307 12.0164C40.6467 11.767 41.3819 11.409 42.0237 10.9336L40.8333 9.32644ZM39.2387 10.106C38.6182 10.301 37.9443 10.428 37.2137 10.4828L37.3633 12.4772C38.2327 12.412 39.0588 12.259 39.8383 12.014L39.2387 10.106ZM37.862 10.6608L37.562 10.4508L36.4151 12.0892L36.7151 12.2992L37.862 10.6608ZM36.9729 12.2699C38.2067 12.2892 39.18 12.4048 39.9152 12.5974L40.4219 10.6626C39.477 10.4152 38.3303 10.2908 37.0041 10.2701L36.9729 12.2699ZM39.9369 12.6028C40.5953 12.7596 41.0168 13.0419 41.2918 13.4044L42.8852 12.1956C42.2802 11.3981 41.4217 10.9004 40.4001 10.6572L39.9369 12.6028ZM41.3022 13.4178C41.5463 13.7285 41.7485 14.2988 41.7485 15.29H43.7485C43.7485 14.0812 43.5107 12.9915 42.8748 12.1822L41.3022 13.4178ZM41.7485 15.29V20H43.7485V15.29H41.7485ZM42.7485 19H39.3585V21H42.7485V19ZM40.3585 20V15.47H38.3585V20H40.3585ZM40.3585 15.47C40.3585 14.6061 40.2025 13.7931 39.7706 13.1453L38.1065 14.2547C38.2346 14.4469 38.3585 14.8139 38.3585 15.47H40.3585ZM39.7994 13.1913C39.3613 12.4499 38.6269 12.03 37.7941 11.8281L37.3229 13.7718C37.8101 13.89 37.9957 14.0701 38.0776 14.2087L39.7994 13.1913ZM37.8293 11.8373C37.0572 11.6202 36.0292 11.53 34.7985 11.53V13.53C35.9679 13.53 36.7798 13.6198 37.2878 13.7627L37.8293 11.8373ZM34.7985 11.53H27.9885V13.53H34.7985V11.53ZM26.9885 12.53V20H28.9885V12.53H26.9885ZM27.9885 19H24.5685V21H27.9885V19ZM27.9885 10.74H36.0585V8.74H27.9885V10.74ZM36.0585 10.74C37.4154 10.74 38.6148 10.3997 39.4839 9.5586L38.0931 8.1214C37.7223 8.48028 37.1017 8.74 36.0585 8.74V10.74ZM39.4839 9.5586C40.3258 8.74393 40.7185 7.68063 40.7185 6.47H38.7185C38.7185 7.21937 38.4913 7.73607 38.0931 8.1214L39.4839 9.5586ZM40.7185 6.47C40.7185 5.28837 40.3152 4.25655 39.4163 3.53159L38.1608 5.08841C38.5018 5.36345 38.7185 5.77163 38.7185 6.47H40.7185ZM39.4311 3.54381C38.5618 2.81467 37.3837 2.53 36.0585 2.53V4.53C37.1334 4.53 37.7753 4.76533 38.1459 5.07619L39.4311 3.54381ZM36.0585 2.53H27.9885V4.53H36.0585V2.53ZM26.9885 3.53V9.74H28.9885V3.53H26.9885ZM47.8729 0.56V-0.44H46.8729V0.56H47.8729ZM51.2929 0.56H52.2929V-0.44H51.2929V0.56ZM51.2929 20V21H52.2929V20H51.2929ZM47.8729 20H46.8729V21H47.8729V20ZM47.8729 1.56H51.2929V-0.44H47.8729V1.56ZM50.2929 0.56V20H52.2929V0.56H50.2929ZM51.2929 19H47.8729V21H51.2929V19ZM48.8729 20V0.56H46.8729V20H48.8729ZM62.8614 20L61.9378 20.3834L62.1938 21H62.8614V20ZM54.7914 0.56V-0.44H53.2935L53.8678 0.943401L54.7914 0.56ZM58.5114 0.56L59.4402 0.189439L59.1891 -0.44H58.5114V0.56ZM65.4414 17.93V18.93H66.917L66.3702 17.5594L65.4414 17.93ZM64.3314 17.93L63.402 17.5608L62.8582 18.93H64.3314V17.93ZM71.2314 0.56V-0.44H70.5526L70.302 0.190824L71.2314 0.56ZM74.8914 0.56L75.8165 0.939744L76.3829 -0.44H74.8914V0.56ZM66.9114 20V21H67.5819L67.8365 20.3797L66.9114 20ZM63.785 19.6166L55.715 0.176599L53.8678 0.943401L61.9378 20.3834L63.785 19.6166ZM54.7914 1.56H58.5114V-0.44H54.7914V1.56ZM57.5826 0.930561L64.5126 18.3006L66.3702 17.5594L59.4402 0.189439L57.5826 0.930561ZM65.4414 16.93H64.3314V18.93H65.4414V16.93ZM65.2608 18.2992L72.1608 0.929176L70.302 0.190824L63.402 17.5608L65.2608 18.2992ZM71.2314 1.56H74.8914V-0.44H71.2314V1.56ZM73.9663 0.180256L65.9863 19.6203L67.8365 20.3797L75.8165 0.939744L73.9663 0.180256ZM66.9114 19H62.8614V21H66.9114V19ZM81.2177 19.13L80.779 20.0287L80.7832 20.0307L81.2177 19.13ZM77.2877 15.65L76.4352 16.1729L76.4403 16.181L77.2877 15.65ZM77.2877 4.91L76.4371 4.38403L76.4352 4.38717L77.2877 4.91ZM81.2177 1.43L81.6476 2.33287L81.6521 2.33069L81.2177 1.43ZM93.1577 1.43L92.719 2.32871L92.7277 2.33286L93.1577 1.43ZM97.0577 4.91L96.2022 5.4278L96.2062 5.43444L96.2103 5.44101L97.0577 4.91ZM97.0577 15.65L96.2103 15.119L96.2052 15.1272L97.0577 15.65ZM93.1577 19.13L92.719 18.2313L93.1577 19.13ZM91.2077 16.58L91.6167 17.4925L91.2077 16.58ZM93.9377 14.24L93.096 13.7L93.0933 13.7042L93.9377 14.24ZM93.9377 6.38L93.0888 6.90856L93.0946 6.91797L93.1007 6.92725L93.9377 6.38ZM91.2077 4.01L90.7856 4.91658L90.7921 4.91959L90.7986 4.92251L91.2077 4.01ZM83.1677 4.01L83.571 4.92518L83.5838 4.91931L83.1677 4.01ZM80.3777 6.38L81.2147 6.92727L81.2194 6.91995L80.3777 6.38ZM80.3777 14.24L79.5359 14.78L79.5407 14.7872L80.3777 14.24ZM83.1677 16.58L82.7644 17.4951L83.1677 16.58ZM87.1877 19.36C85.0273 19.36 83.1913 18.9718 81.6521 18.2293L80.7832 20.0307C82.644 20.9282 84.788 21.36 87.1877 21.36V19.36ZM81.6563 18.2313C80.1344 17.4885 78.9701 16.4516 78.135 15.119L76.4403 16.181C77.4852 17.8484 78.941 19.1315 80.779 20.0287L81.6563 18.2313ZM78.1401 15.1272C77.3329 13.8111 76.9077 12.2094 76.9077 10.28H74.9077C74.9077 12.5106 75.4024 14.4889 76.4352 16.1728L78.1401 15.1272ZM76.9077 10.28C76.9077 8.35058 77.3329 6.74887 78.1401 5.43283L76.4352 4.38717C75.4024 6.07113 74.9077 8.04942 74.9077 10.28H76.9077ZM78.1382 5.43597C78.9728 4.08634 80.1336 3.05383 81.6476 2.33286L80.7877 0.527139C78.9418 1.40617 77.4825 2.69365 76.4371 4.38403L78.1382 5.43597ZM81.6521 2.33069C83.1913 1.58824 85.0273 1.2 87.1877 1.2V-0.800001C84.788 -0.800001 82.644 -0.368245 80.7832 0.529305L81.6521 2.33069ZM87.1877 1.2C89.37 1.2 91.2034 1.58892 92.719 2.32867L93.5963 0.531334C91.7519 -0.368921 89.6053 -0.800001 87.1877 -0.800001V1.2ZM92.7277 2.33286C94.2401 3.05303 95.3883 4.08312 96.2022 5.4278L97.9132 4.3922C96.887 2.69688 95.4352 1.40697 93.5876 0.527139L92.7277 2.33286ZM96.2103 5.44101C97.0342 6.75577 97.4677 8.35446 97.4677 10.28H99.4677C99.4677 8.04554 98.9611 6.06423 97.905 4.37899L96.2103 5.44101ZM97.4677 10.28C97.4677 12.2055 97.0342 13.8042 96.2103 15.119L97.905 16.181C98.9611 14.4958 99.4677 12.5145 99.4677 10.28H97.4677ZM96.2052 15.1272C95.3909 16.4548 94.2393 17.4893 92.719 18.2313L93.5963 20.0287C95.436 19.1307 96.8844 17.8452 97.9101 16.1728L96.2052 15.1272ZM92.719 18.2313C91.2034 18.9711 89.37 19.36 87.1877 19.36V21.36C89.6053 21.36 91.7519 20.9289 93.5963 20.0287L92.719 18.2313ZM87.1877 18.36C88.8215 18.36 90.3054 18.0803 91.6167 17.4925L90.7986 15.6675C89.7899 16.1197 88.5938 16.36 87.1877 16.36V18.36ZM91.6167 17.4925C92.9495 16.895 94.0134 15.9869 94.782 14.7758L93.0933 13.7042C92.5419 14.5731 91.7858 15.225 90.7986 15.6675L91.6167 17.4925ZM94.7794 14.78C95.5861 13.5223 95.9577 12.0029 95.9577 10.28H93.9577C93.9577 11.7171 93.6492 12.8377 93.096 13.7L94.7794 14.78ZM95.9577 10.28C95.9577 8.57519 95.5852 7.07249 94.7746 5.83275L93.1007 6.92725C93.6501 7.76751 93.9577 8.86481 93.9577 10.28H95.9577ZM94.7866 5.85144C94.0194 4.61934 92.9548 3.69731 91.6167 3.09749L90.7986 4.92251C91.7805 5.36269 92.5359 6.02066 93.0888 6.90856L94.7866 5.85144ZM91.6297 3.10342C90.315 2.4914 88.8264 2.2 87.1877 2.2V4.2C88.5889 4.2 89.7803 4.4486 90.7856 4.91658L91.6297 3.10342ZM87.1877 2.2C85.5663 2.2 84.081 2.49231 82.7515 3.10069L83.5838 4.91931C84.6143 4.44769 85.809 4.2 87.1877 4.2V2.2ZM82.7644 3.09491C81.4091 3.69215 80.3247 4.61049 79.536 5.84004L81.2194 6.91995C81.7906 6.02951 82.5662 5.36785 83.5709 4.92508L82.7644 3.09491ZM79.5407 5.83275C78.7301 7.07249 78.3577 8.57519 78.3577 10.28H80.3577C80.3577 8.86481 80.6652 7.76751 81.2146 6.92725L79.5407 5.83275ZM78.3577 10.28C78.3577 12.0029 78.7292 13.5223 79.536 14.78L81.2194 13.7C80.6661 12.8377 80.3577 11.7171 80.3577 10.28H78.3577ZM79.5407 14.7872C80.3308 15.9956 81.4143 16.9001 82.7644 17.4951L83.5709 15.6649C82.561 15.2199 81.7846 14.5644 81.2146 13.6928L79.5407 14.7872ZM82.7644 17.4951C84.0905 18.0795 85.5713 18.36 87.1877 18.36V16.36C85.804 16.36 84.6048 16.1205 83.5709 15.6649L82.7644 17.4951ZM115.041 0.56V-0.44H114.548L114.248 -0.0483101L115.041 0.56ZM119.091 0.56L119.873 1.18416L121.17 -0.44H119.091V0.56ZM110.631 11.15L111.338 11.8571L111.378 11.8177L111.413 11.7742L110.631 11.15ZM110.541 11.24L109.834 10.5329L109.782 10.5855L109.737 10.6453L110.541 11.24ZM104.061 20V21H104.565L104.865 20.5947L104.061 20ZM99.9812 20L99.1916 19.3865L97.9381 21H99.9812V20ZM108.651 8.84L108.097 8.00795L107.961 8.09812L107.862 8.2265L108.651 8.84ZM108.741 8.78L109.296 9.61205L109.434 9.52001L109.535 9.38831L108.741 8.78ZM104.361 0.56L105.163 -0.0376652L104.863 -0.44H104.361V0.56ZM110.511 8.81L111.406 8.36279L111.366 8.28345L111.313 8.21233L110.511 8.81ZM110.541 8.87L109.647 9.31721L109.691 9.40459L109.75 9.48187L110.541 8.87ZM119.151 20V21H121.189L119.942 19.3881L119.151 20ZM114.831 20L114.018 20.5818L114.317 21H114.831V20ZM108.501 11.15L109.315 10.5682L109.267 10.5012L109.208 10.4429L108.501 11.15ZM108.441 11.09L107.651 11.7025L107.689 11.7524L107.734 11.7971L108.441 11.09ZM100.281 0.56V-0.44H98.2412L99.4908 1.17254L100.281 0.56ZM115.041 1.56H119.091V-0.44H115.041V1.56ZM118.31 -0.0641552L109.85 10.5258L111.413 11.7742L119.873 1.18416L118.31 -0.0641552ZM109.924 10.4429L109.834 10.5329L111.248 11.9471L111.338 11.8571L109.924 10.4429ZM109.737 10.6453L103.257 19.4053L104.865 20.5947L111.345 11.8347L109.737 10.6453ZM104.061 19H99.9812V21H104.061V19ZM100.771 20.6135L109.441 9.4535L107.862 8.2265L99.1916 19.3865L100.771 20.6135ZM109.206 9.67205L109.296 9.61205L108.187 7.94795L108.097 8.00795L109.206 9.67205ZM109.535 9.38831L115.835 1.16831L114.248 -0.0483101L107.948 8.17169L109.535 9.38831ZM103.56 1.15767L109.71 9.40766L111.313 8.21233L105.163 -0.0376652L103.56 1.15767ZM109.617 9.25721L109.647 9.31721L111.436 8.42279L111.406 8.36279L109.617 9.25721ZM109.75 9.48187L118.36 20.6119L119.942 19.3881L111.332 8.25813L109.75 9.48187ZM119.151 19H114.831V21H119.151V19ZM115.645 19.4182L109.315 10.5682L107.688 11.7318L114.018 20.5818L115.645 19.4182ZM109.208 10.4429L109.148 10.3829L107.734 11.7971L107.794 11.8571L109.208 10.4429ZM109.232 10.4775L101.072 -0.0525366L99.4908 1.17254L107.651 11.7025L109.232 10.4775ZM100.281 1.56H104.361V-0.44H100.281V1.56ZM126.104 11.72V10.72H125.104V11.72H126.104ZM126.104 17.06H125.104V18.06H126.104V17.06ZM139.754 17.06H140.754V16.06H139.754V17.06ZM139.754 20V21H140.754V20H139.754ZM122.684 20H121.684V21H122.684V20ZM122.684 0.56V-0.44H121.684V0.56H122.684ZM139.724 0.56H140.724V-0.44H139.724V0.56ZM139.724 3.5V4.5H140.724V3.5H139.724ZM126.104 3.5V2.5H125.104V3.5H126.104ZM126.104 8.9H125.104V9.9H126.104V8.9ZM137.264 8.9H138.264V7.9H137.264V8.9ZM137.264 11.72V12.72H138.264V11.72H137.264ZM125.104 11.72V17.06H127.104V11.72H125.104ZM126.104 18.06H139.754V16.06H126.104V18.06ZM138.754 17.06V20H140.754V17.06H138.754ZM139.754 19H122.684V21H139.754V19ZM123.684 20V0.56H121.684V20H123.684ZM122.684 1.56H139.724V-0.44H122.684V1.56ZM138.724 0.56V3.5H140.724V0.56H138.724ZM139.724 2.5H126.104V4.5H139.724V2.5ZM125.104 3.5V8.9H127.104V3.5H125.104ZM126.104 9.9H137.264V7.9H126.104V9.9ZM136.264 8.9V11.72H138.264V8.9H136.264ZM137.264 10.72H126.104V12.72H137.264V10.72ZM147.405 16.76H148.405V15.76H147.405V16.76ZM147.405 20V21H148.405V20H147.405ZM143.415 20H142.415V21H143.415V20ZM143.415 16.76V15.76H142.415V16.76H143.415ZM146.405 16.76V20H148.405V16.76H146.405ZM147.405 19H143.415V21H147.405V19ZM144.415 20V16.76H142.415V20H144.415ZM143.415 17.76H147.405V15.76H143.415V17.76Z" fill="white" mask="url(#path-1-outside-1_92_2054)"/>
</svg>
