<svg width="14" height="15" viewBox="0 0 14 15" fill="none" xmlns="http://www.w3.org/2000/svg">
<g clip-path="url(#clip0_89_1474)">
<path d="M13.8672 13.7745L10.2526 10.2177C11.1991 9.18927 11.7807 7.82921 11.7807 6.33261C11.7803 3.1311 9.14327 0.536133 5.89013 0.536133C2.63699 0.536133 0 3.1311 0 6.33261C0 9.53412 2.63699 12.1291 5.89013 12.1291C7.29571 12.1291 8.58488 11.6429 9.59751 10.8347L13.2261 14.4055C13.4029 14.5797 13.6899 14.5797 13.8668 14.4055C14.044 14.2313 14.044 13.9486 13.8672 13.7745ZM5.89013 11.2373C3.13762 11.2373 0.906279 9.04138 0.906279 6.33261C0.906279 3.62384 3.13762 1.42795 5.89013 1.42795C8.64266 1.42795 10.874 3.62384 10.874 6.33261C10.874 9.04138 8.64266 11.2373 5.89013 11.2373Z" fill="#222222"/>
</g>
<defs>
<clipPath id="clip0_89_1474">
<rect width="14" height="14" fill="white" transform="translate(0 0.536133)"/>
</clipPath>
</defs>
</svg>
