<svg width="23" height="24" viewBox="0 0 23 24" fill="none" xmlns="http://www.w3.org/2000/svg">
<g clip-path="url(#clip0_93_2170)">
<path d="M12.1517 4.35177C8.41064 4.14091 4.80127 5.76522 2.47812 8.70513C0.154964 11.645 -0.590856 15.5322 0.479219 19.1231C0.579237 19.446 0.877621 19.6662 1.2156 19.6667H21.7849C22.1229 19.6661 22.4212 19.4457 22.5209 19.1227C23.5272 15.7516 22.935 12.1054 20.9137 9.22594C18.8923 6.34651 15.6642 4.55072 12.1517 4.35177ZM21.7849 18.9L1.21369 18.9027C0.24449 15.655 0.866154 12.1404 2.89058 9.4222C4.915 6.70403 8.10432 5.10169 11.4935 5.10003C11.698 5.10003 11.9033 5.10565 12.1096 5.1169C15.3873 5.30198 18.4 6.97756 20.2862 9.66461C22.1724 12.3517 22.7246 15.7544 21.7849 18.9Z" fill="#FD3B3B"/>
<path d="M11.5001 5.8667C8.5078 5.86874 5.67455 7.21415 3.78189 9.53179C1.88922 11.8494 1.13714 14.8944 1.73311 17.8267C1.77964 18.0295 1.97952 18.1582 2.18343 18.1166C2.38733 18.0749 2.52077 17.8782 2.48406 17.6734C2.38734 17.1932 2.32901 16.7061 2.30964 16.2167H3.45006C3.66177 16.2167 3.83339 16.0451 3.83339 15.8334C3.83339 15.6217 3.66177 15.45 3.45006 15.45H2.30964C2.36461 14.0958 2.72025 12.7708 3.35078 11.5711L4.33671 12.1403C4.45538 12.2099 4.60223 12.2106 4.72151 12.142C4.84079 12.0735 4.91421 11.9464 4.91391 11.8088C4.91361 11.6712 4.83962 11.5444 4.72004 11.4764L3.73564 10.9079C4.46322 9.76557 5.43226 8.79652 6.57461 8.06895L7.14309 9.05335C7.21108 9.17293 7.33793 9.24691 7.47549 9.24722C7.61305 9.24752 7.74022 9.17409 7.80873 9.05481C7.87725 8.93553 7.8766 8.78868 7.80703 8.67002L7.23778 7.68408C9.90662 6.28313 13.0935 6.28313 15.7623 7.68408L15.1931 8.67002C15.1235 8.78868 15.1229 8.93553 15.1914 9.05481C15.2599 9.17409 15.3871 9.24752 15.5246 9.24722C15.6622 9.24691 15.789 9.17293 15.857 9.05335L16.4255 8.06895C17.5679 8.79652 18.5369 9.76557 19.2645 10.9079L18.2801 11.4764C18.1605 11.5444 18.0865 11.6712 18.0862 11.8088C18.0859 11.9464 18.1593 12.0735 18.2786 12.142C18.3979 12.2106 18.5447 12.2099 18.6634 12.1403L19.6493 11.5711C20.2799 12.7708 20.6355 14.0958 20.6905 15.45H19.5501C19.3384 15.45 19.1667 15.6217 19.1667 15.8334C19.1667 16.0451 19.3384 16.2167 19.5501 16.2167H20.6905C20.6711 16.7061 20.6128 17.1932 20.5161 17.6734C20.4741 17.8806 20.6079 18.0826 20.8151 18.1249C20.8403 18.1302 20.866 18.1329 20.8917 18.133C21.0738 18.1328 21.2306 18.0047 21.267 17.8263C21.8628 14.8941 21.1107 11.8492 19.2181 9.53167C17.3254 7.21412 14.4922 5.86876 11.5001 5.8667Z" fill="#FD3B3B"/>
<path d="M12.8312 13.9611L12.2995 8.13446C12.2632 7.7199 11.916 7.40186 11.4999 7.40186C11.0837 7.40186 10.7366 7.7199 10.7002 8.13446L10.1686 13.9611C9.35222 14.5406 9.00445 15.5815 9.30856 16.5353C9.61266 17.4891 10.4988 18.1366 11.4999 18.1366C12.501 18.1366 13.3871 17.4891 13.6912 16.5353C13.9953 15.5815 13.6475 14.5406 12.8312 13.9611ZM11.4638 8.20001C11.4693 8.18485 11.4837 8.17475 11.4999 8.17475C11.516 8.17475 11.5304 8.18485 11.5359 8.20001L12.0281 13.5954C11.6811 13.5105 11.3187 13.5105 10.9716 13.5954L11.4638 8.20001ZM11.4999 17.3667C10.653 17.3667 9.96654 16.6802 9.96654 15.8333C9.96654 14.9865 10.653 14.3 11.4999 14.3C12.3467 14.3 13.0332 14.9865 13.0332 15.8333C13.0332 16.6802 12.3467 17.3667 11.4999 17.3667Z" fill="#FD3B3B"/>
</g>
<defs>
<clipPath id="clip0_93_2170">
<rect width="23" height="23" fill="white" transform="translate(0 0.5)"/>
</clipPath>
</defs>
</svg>
